<?xml version="1.0" encoding="UTF-8"?><!DOCTYPE svg PUBLIC "-//W3C//DTD SVG 1.1//EN" "http://www.w3.org/Graphics/SVG/1.1/DTD/svg11.dtd"><svg xmlns="http://www.w3.org/2000/svg" xmlns:xlink="http://www.w3.org/1999/xlink"><defs/><symbol id="abstract" viewBox="0 0 100 100"><path fill-rule="evenodd" d="M54.0433174,748.601905 C54.3516281,748.535155 54.6717086,748.5 55,748.5 C57.4852814,748.5 59.5,750.514719 59.5,753 C59.5,755.485281 57.4852814,757.5 55,757.5 C53.7805863,757.5 52.6744565,757.014974 51.8640078,756.227318 C50.7838813,757.027064 49.4471707,757.5 48,757.5 C44.4101491,757.5 41.5,754.589851 41.5,751 C41.5,747.410149 44.4101491,744.5 48,744.5 C50.7428864,744.5 53.088964,746.19894 54.0433174,748.601905 Z M53.0940585,748.922376 C52.2744049,746.914758 50.3024196,745.5 48,745.5 C44.9624339,745.5 42.5,747.962434 42.5,751 C42.5,754.037566 44.9624339,756.5 48,756.5 C49.2057738,756.5 50.3209227,756.111988 51.2273978,755.454014 C50.7673465,754.748212 50.5,753.905327 50.5,753 C50.5,751.195995 51.5615456,749.639928 53.0940585,748.922376 Z M52.6230971,755.569134 C53.2472752,756.146887 54.0824006,756.5 55,756.5 C56.9329966,756.5 58.5,754.932997 58.5,753 C58.5,751.067003 56.9329966,749.5 55,749.5 C54.7745195,749.5 54.5540191,749.521322 54.3404049,749.562059 C54.4448627,750.024617 54.5,750.50587 54.5,751 C54.5,752.781201 53.7835459,754.395065 52.6230971,755.569134 Z M53.3884098,749.892293 C52.2664021,750.475328 51.5,751.648163 51.5,753 C51.5,753.652467 51.6785355,754.263235 51.9894187,754.786115 C52.9255971,753.799987 53.5,752.467073 53.5,751 C53.5,750.620564 53.4615771,750.250102 53.3884098,749.892293 Z" transform="translate(-41 -744)"/></symbol><symbol id="arrow--down" viewBox="0 0 100 100">
<polygon points="52.6,89 74.3,67.2 78,71 50,99 22,71 25.7,67.2 47.4,89 47.4,1 52.6,1 "/>
</symbol><symbol id="arrow--left" viewBox="0 0 100 100">
<polygon points="11,52.6 32.8,74.3 29,78 1,50 29,22 32.8,25.7 11,47.4 99,47.4 99,52.6 "/>
</symbol><symbol id="arrow-short--left" viewBox="0 0 100 100">
<polygon points="11.1,47.4 99,47.4 99,52.6 11.1,52.6 43.5,85 39.8,88.8 1,50 39.8,11.2 43.5,15 "/>
</symbol><symbol id="arrow-short" viewBox="0 0 100 100">
<polygon points="88.9,52.6 1,52.6 1,47.4 88.9,47.4 56.5,15 60.2,11.2 99,50 60.2,88.8 56.5,85 "/>
</symbol><symbol id="arrow" viewBox="0 0 100 100">
<polygon points="89,47.4 67.2,25.7 71,22 99,50 71,78 67.2,74.3 89,52.6 1,52.6 1,47.4 "/>
</symbol><symbol id="ball" viewBox="0 0 100 100">
<path d="M50,1c27.1,0,49,21.9,49,49S77.1,99,50,99S1,77.1,1,50S22.9,1,50,1z M93.5,52.7H66.4c0.7,11.1,5.6,21.4,13.5,28.9
	C87.9,74.1,92.8,63.8,93.5,52.7z M66.4,47.3h27.1c-0.7-11.1-5.6-21.4-13.5-28.9C72,25.9,67.1,36.2,66.4,47.3z M6.5,52.7
	c0.7,11.1,5.6,21.4,13.5,28.9c8-7.5,12.8-17.8,13.5-28.9H6.5z M6.5,47.3h27.1C32.9,36.2,28,25.9,20.1,18.4
	C12.1,25.9,7.2,36.2,6.5,47.3z M61,52.7H39c-0.7,12.4-6,23.9-14.8,32.4c7.2,5.3,16.1,8.4,25.7,8.4s18.5-3.1,25.7-8.4
	C67,76.6,61.6,65.1,61,52.7z M39,47.3H61c0.7-12.4,6-23.9,14.8-32.4C68.5,9.6,59.6,6.4,50,6.4s-18.5,3.1-25.7,8.4
	C33,23.4,38.4,34.9,39,47.3z"/>
</symbol><symbol id="big-next" viewBox="0 0 100 100">
<style type="text/css">
	.st0{fill:#FFFFFF;}
</style>
<path class="st0" d="M43.9,1l32.8,49L43.9,99H23.3V1H43.9z M28.8,6.4v87.1h12.2L70.1,50L40.9,6.4H28.8z"/>
</symbol><symbol id="bookmark-detail" viewBox="0 0 100 100">
<path d="M15.7,10.8H1V5.9h98v4.9H84.3v83.3H73.8L50,79.8L26.2,94.1H15.7V10.8z M79.4,89.2V10.8H20.6v78.4h4.2L50,74.1l25.2,15.1
	H79.4z"/>
</symbol><symbol id="bookmark" viewBox="0 0 100 100"><path fill-rule="evenodd" d="M179,2799 L161,2799 L161,2781 L179,2781 L179,2799 Z M167,2782 L162,2782 L162,2798 L178,2798 L178,2782 L173,2782 L173,2789.23852 L170,2788.03852 L167,2789.23852 L167,2782 Z M172,2782 L168,2782 L168,2787.76148 L170,2786.96148 L172,2787.76148 L172,2782 Z" transform="translate(-161 -2781)"/></symbol><symbol id="building" viewBox="0 0 100 100">
<polygon points="93.6,93.4 93.6,71.6 99,71.6 99,98.8 1,98.8 1,71.6 6.4,71.6 6.4,93.4 "/>
<polygon points="6.4,21.8 6.4,49.8 1,49.8 1,17.9 50,1.2 99,17.9 99,49.8 93.6,49.8 93.6,21.8 50,6.9 "/>
</symbol><symbol id="carat--down" viewBox="0 0 100 100">
<path d="M50,66.2l43.5-43.5l5.5,5.5l-49,49l-49-49l5.5-5.5L50,66.2z"/>
</symbol><symbol id="carat" viewBox="0 0 100 100">
<path d="M66.2,50L22.7,6.5L28.3,1l49,49l-49,49l-5.5-5.5L66.2,50z"/>
</symbol><symbol id="chevron" viewBox="0 0 100 100">
<path d="M91.2,50L54.8,13.6l3.9-3.9L99,50L58.7,90.3l-3.9-3.9L91.2,50z M1,86.4L37.4,50L1,13.6l3.9-3.9L45.2,50L4.9,90.3L1,86.4z"/>
</symbol><symbol id="circles" viewBox="0 0 100 100">
<path d="M79.9,1C90.5,1,99,9.5,99,20.1s-8.5,19.1-19.1,19.1s-19.1-8.5-19.1-19.1S69.4,1,79.9,1z M79.9,6.4
	c-7.5,0-13.6,6.1-13.6,13.6s6.1,13.6,13.6,13.6s13.6-6.1,13.6-13.6S87.5,6.4,79.9,6.4z M20.1,1c10.5,0,19.1,8.5,19.1,19.1
	s-8.5,19.1-19.1,19.1S1,30.6,1,20.1S9.5,1,20.1,1z M20.1,6.4c-7.5,0-13.6,6.1-13.6,13.6s6.1,13.6,13.6,13.6s13.6-6.1,13.6-13.6
	S27.6,6.4,20.1,6.4z M79.9,60.9c10.5,0,19.1,8.5,19.1,19.1S90.5,99,79.9,99s-19.1-8.5-19.1-19.1S69.4,60.9,79.9,60.9z M79.9,66.3
	c-7.5,0-13.6,6.1-13.6,13.6s6.1,13.6,13.6,13.6s13.6-6.1,13.6-13.6S87.5,66.3,79.9,66.3z M20.1,60.9c10.5,0,19.1,8.5,19.1,19.1
	S30.6,99,20.1,99S1,90.5,1,79.9S9.5,60.9,20.1,60.9z M20.1,66.3c-7.5,0-13.6,6.1-13.6,13.6s6.1,13.6,13.6,13.6s13.6-6.1,13.6-13.6
	S27.6,66.3,20.1,66.3z"/>
</symbol><symbol id="close-x" viewBox="0 0 100 100">
<polygon points="43.5,50 1,7.5 7.5,1 50,43.5 92.5,1 99,7.5 56.5,50 99,92.5 92.5,99 50,56.5 7.5,99 1,92.5 "/>
</symbol><symbol id="code" viewBox="0 0 100 100"><path d="M286.29289,1770 L280.706446,1764.41361 L281.413549,1763.7065 L287.70711,1770 L281.413549,1776.2935 L280.706446,1775.58639 L286.29289,1770 Z M292,1775 L300,1775 L300,1776 L292,1776 L292,1775 Z" transform="translate(-280 -1763)"/></symbol><symbol id="community" viewBox="0 0 100 100">
<style type="text/css">
	.st0{fill:#FFFFFF;}
</style>
<path class="st0" d="M42.3,68.3c10.4,4.3,17.7,15.2,17.7,28V99h-5v-2.7c0-13.8-10.2-24.9-22.6-24.9S9.8,82.5,9.8,96.3V99h-5v-2.7
	c0-12.7,7.3-23.6,17.7-28c-4.6-3.2-7.7-8.5-7.7-14.5c0-9.7,7.9-17.6,17.6-17.6S50,44.1,50,53.8C50,59.8,47,65.1,42.3,68.3z
	 M32.4,41.2c-6.9,0-12.6,5.6-12.6,12.6s5.6,12.6,12.6,12.6S45,60.7,45,53.8S39.3,41.2,32.4,41.2z M77.5,33.1
	c10.4,4.3,17.7,15.2,17.7,28v2.7h-5v-2.7c0-13.8-10.2-24.9-22.6-24.9c-9.7,0-17.6-7.9-17.6-17.6S57.9,1,67.6,1s17.6,7.9,17.6,17.6
	C85.2,24.6,82.1,30,77.5,33.1z M67.6,6C60.7,6,55,11.7,55,18.6s5.6,12.6,12.6,12.6s12.6-5.6,12.6-12.6S74.5,6,67.6,6z"/>
</symbol><symbol id="conveyancing" viewBox="0 0 100 100"><path d="M44.1503906,45.2993164h-7.6982422c-0.5527344,0-1,0.4477539-1,1V59.449707c0,0.5522461,0.4472656,1,1,1h7.6982422  c0.5527344,0,1-0.4477539,1-1V46.2993164C45.1503906,45.7470703,44.703125,45.2993164,44.1503906,45.2993164z M43.1503906,58.449707  h-5.6982422V47.2993164h5.6982422V58.449707z"/><path d="M30.1972656,45.2993164h-7.6982422c-0.5527344,0-1,0.4477539-1,1V59.449707c0,0.5522461,0.4472656,1,1,1h7.6982422  c0.5527344,0,1-0.4477539,1-1V46.2993164C31.1972656,45.7470703,30.75,45.2993164,30.1972656,45.2993164z M29.1972656,58.449707  h-5.6982422V47.2993164h5.6982422V58.449707z"/><path d="M11,38.8217773h3.3408203V89c0,0.5522461,0.4472656,1,1,1h69.3183594c0.5527344,0,1-0.4477539,1-1V38.8217773h3.3710938  c0.3828125,0,0.7314453-0.2182617,0.8994141-0.5625c0.1669922-0.3442383,0.1240234-0.753418-0.1123047-1.0546875  L68.7832031,10.3828125c-0.3789062-0.4833984-1.1953125-0.4833984-1.5742188,0L59.6668701,20H49v-5.3779297  c0-0.5522461-0.4472656-1-1-1h-7.6982422c-0.5527344,0-1,0.4477539-1,1V20h-6.1357422v-5.3779297c0-0.5522461-0.4472656-1-1-1  h-7.6992188c-0.5527344,0-1,0.4477539-1,1V20H19c-0.3857422,0-0.7373047,0.222168-0.9033203,0.5703125l-8,16.8217773  c-0.1474609,0.3100586-0.125,0.6738281,0.0576172,0.9638672C10.3378906,38.6459961,10.6572266,38.8217773,11,38.8217773z   M16.3408203,38.8217773h33.9921875V88H16.3408203V38.8217773z M72.9560547,88h-9.9208984V70.7753906h9.9208984V88z M83.6591797,88  h-8.703125V69.7753906c0-0.5522461-0.4472656-1-1-1H62.0351562c-0.5527344,0-1,0.4477539-1,1V88h-8.7021484V38.8217773h31.3261719  V88z M67.9960938,12.6206055l18.9794922,24.2011719H49.0166016L67.9960938,12.6206055z M41.3017578,15.6220703H47v10.7558594  h-5.6982422V15.6220703z M25.4667969,15.6220703h5.6992188v10.7558594h-5.6992188V15.6220703z M19.6318359,22h3.8349609v5.3779297  c0,0.5522461,0.4472656,1,1,1h7.6992188c0.5527344,0,1-0.4477539,1-1V22h6.1357422v5.3779297c0,0.5522461,0.4472656,1,1,1H48  c0.5527344,0,1-0.4477539,1-1V22h9.0983887L46.4746094,36.8217773H12.5830078L19.6318359,22z"/><path d="M62.1953125,32.6948242h11.5908203c0.5527344,0,1-0.4477539,1-1v-1.8383789  c0-3.7470703-3.0478516-6.7954102-6.7949219-6.7954102s-6.7958984,3.0483398-6.7958984,6.7954102v1.8383789  C61.1953125,32.2470703,61.6425781,32.6948242,62.1953125,32.6948242z M63.1953125,29.8564453  c0-2.644043,2.1513672-4.7954102,4.7958984-4.7954102c2.6435547,0,4.7949219,2.1513672,4.7949219,4.7954102v0.8383789h-9.5908203  V29.8564453z"/><path d="M67.9960938,62.6000977c5.0458984,0,9.1503906-4.1049805,9.1503906-9.1503906s-4.1044922-9.1503906-9.1503906-9.1503906  s-9.1513672,4.1049805-9.1513672,9.1503906S62.9501953,62.6000977,67.9960938,62.6000977z M67.9960938,46.2993164  c3.9423828,0,7.1503906,3.2075195,7.1503906,7.1503906s-3.2080078,7.1503906-7.1503906,7.1503906  c-3.9433594,0-7.1513672-3.2075195-7.1513672-7.1503906S64.0527344,46.2993164,67.9960938,46.2993164z"/></symbol><symbol id="crop" viewBox="0 0 100 100">
<path d="M20.6,25.5H1v-4.9h19.6V1h4.9v19.6h53.9v53.9H99v4.9H79.4V99h-4.9V79.4H20.6V25.5z M25.5,25.5v49h49v-49H25.5z"/>
</symbol><symbol id="cutout" viewBox="0 0 100 100"><path fill-rule="evenodd" d="M350,2259 C345.029437,2259 341,2254.97056 341,2250 C341,2245.02944 345.029437,2241 350,2241 C354.970563,2241 359,2245.02944 359,2250 C359,2254.97056 354.970563,2259 350,2259 Z M350,2242 C345.581722,2242 342,2245.58172 342,2250 C342,2254.41828 345.581722,2258 350,2258 C351.020851,2258 352.013471,2257.80882 352.938487,2257.44328 C350.509053,2255.79024 349,2253.02834 349,2250 C349,2246.97166 350.509053,2244.20976 352.938487,2242.55672 C352.013471,2242.19118 351.020851,2242 350,2242 Z M350,2250 C350,2252.8938 351.549566,2255.51327 354,2256.92989 C356.450434,2255.51327 358,2252.8938 358,2250 C358,2247.1062 356.450434,2244.48673 354,2243.07011 C351.549566,2244.48673 350,2247.1062 350,2250 Z" transform="translate(-341 -2241)"/></symbol><symbol id="eye" viewBox="0 0 100 100">
<path d="M1.5,48.9C9.5,30.1,28.7,17.5,50,17.5s40.5,12.6,48.5,31.4L99,50l-0.5,1.1C90.5,69.9,71.3,82.5,50,82.5S9.5,69.9,1.5,51.1
	L1,50L1.5,48.9z M50,77.1c18.7,0,35.6-10.9,43.1-27.1C85.6,33.8,68.7,22.9,50,22.9S14.4,33.8,6.9,50C14.4,66.2,31.3,77.1,50,77.1z
	 M50,63.5c-7.5,0-13.5-6.1-13.5-13.5S42.5,36.5,50,36.5S63.5,42.5,63.5,50S57.5,63.5,50,63.5z M50,58.1c4.5,0,8.1-3.6,8.1-8.1
	s-3.6-8.1-8.1-8.1s-8.1,3.6-8.1,8.1S45.5,58.1,50,58.1z"/>
</symbol><symbol id="facebook" viewBox="0 0 100 100">
<g id="XMLID_834_">
	<path id="XMLID_835_" d="M26.8,53.2h10.7v44.2c0,0.9,0.7,1.6,1.6,1.6h18.2c0.9,0,1.6-0.7,1.6-1.6v-44h12.3c0.8,0,1.5-0.6,1.6-1.4
		l1.9-16.3c0.1-0.4-0.1-0.9-0.4-1.2c-0.3-0.3-0.7-0.5-1.2-0.5H58.9V23.8c0-3.1,1.7-4.6,4.9-4.6c0.5,0,9.3,0,9.3,0
		c0.9,0,1.6-0.7,1.6-1.6V2.6C74.8,1.7,74,1,73.2,1H60.4c-0.1,0-0.3,0-0.6,0c-2.2,0-10,0.4-16.1,6.1c-6.8,6.2-5.8,13.7-5.6,15V34
		H26.8c-0.9,0-1.6,0.7-1.6,1.6v16.1C25.2,52.5,26,53.2,26.8,53.2z"/>
</g>
</symbol><symbol id="full-screen-thin" viewBox="0 0 100 100">
<g>
	<rect x="1" y="1" width="4.4" height="24"/>
</g>
<g>
	<rect x="94.6" y="75" width="4.4" height="24"/>
</g>
<g>
	<rect x="1" y="94.6" width="24" height="4.4"/>
</g>
<g>
	<rect x="75" y="1" width="24" height="4.4"/>
</g>
<g>
	<rect x="1" y="1" width="24" height="4.4"/>
</g>
<g>
	<rect x="75" y="94.6" width="24" height="4.4"/>
</g>
<g>
	<rect x="94.6" y="1" width="4.4" height="24"/>
</g>
<g>
	<rect x="1" y="75" width="4.4" height="24"/>
</g>
</symbol><symbol id="funnel" viewBox="0 0 100 100">
<path d="M99,18.1V23H1v-4.9H99z M79.4,47.5v4.9H20.6v-4.9H79.4z M59.8,76.9v4.9H40.2v-4.9H59.8z"/>
</symbol><symbol id="grid-thin" viewBox="0 0 100 100">
<path d="M48.1,48.3V2.2H2v46.1H48.1z M4.8,5h40.5v40.5H4.8V5z M98,2.2H51.9v46.1H98V2.2z M95.2,45.5H54.7V5h40.5V45.5z M48.1,51.7H2
	v46.1h46.1V51.7z M45.3,95H4.8V54.5h40.5V95z M98,51.7H51.9v46.1H98V51.7z M95.2,95H54.7V54.5h40.5V95z"/>
</symbol><symbol id="home" viewBox="0 0 100 100">
<path d="M97.7,98H2.3V34.5L50,2l47.7,32.5V98z M92.4,37.3L50,8.4L7.6,37.3v55.4h84.8V37.3z"/>
</symbol><symbol id="instagram" viewBox="0 0 100 100"><title>Artboard 98</title><path d="M20,0H4A4,4,0,0,0,0,4V20a4,4,0,0,0,4,4H20a4,4,0,0,0,4-4V4A4,4,0,0,0,20,0Zm2,20a2,2,0,0,1-2,2H4a2,2,0,0,1-2-2V4A2,2,0,0,1,4,2H20a2,2,0,0,1,2,2Z"/><path d="M12,6a6,6,0,1,0,6,6A6,6,0,0,0,12,6Zm0,10a4,4,0,1,1,4-4A4,4,0,0,1,12,16Z"/><circle cx="18.5" cy="5.5" r="1.5"/></symbol><symbol id="list" viewBox="0 0 100 100">
<path d="M99,1v98H1V1H99z M6.4,6.4v87.1h87.1V6.4H6.4z M77.2,63.6v5.4H22.8v-5.4H77.2z M77.2,30.9v5.4H22.8v-5.4H77.2z"/>
</symbol><symbol id="litigation" viewBox="0 0 100 100">
<path d="M2.8,25.7c0.1,0.1,1.8,0.7,4.6,0.7c2.9,0,7.1-0.7,12.4-3.2L9.1,63.1H5.5c-0.7,0-1.2,0.5-1.2,1.2v3.6c0,3.5,2.8,6.4,6.4,6.4
	h23.3c3.5,0,6.4-2.8,6.4-6.4v-3.6c0-0.7-0.5-1.2-1.2-1.2h-5L23,21.5c0.2-0.1,0.3-0.2,0.5-0.3c10-6,19.1-6.9,23.6-6.9
	c-0.4,0.7-0.7,1.5-0.8,2.5l-3.9,64.8h-3.4c-3.1,0-5.7,2.5-5.7,5.7v1h-1.9c-0.7,0-1.2,0.5-1.2,1.2v7.1c0,0.7,0.5,1.2,1.2,1.2h37.2
	c0.7,0,1.2-0.5,1.2-1.2v-7.1c0-0.7-0.5-1.2-1.2-1.2h-1.8v-1c0-3.1-2.5-5.7-5.7-5.7h-3.4l-3.9-64.8c-0.1-1.1-0.4-2-0.8-2.5
	c4.3,0,13,0.8,22.6,6.4L64.5,63.1h-3.6c-0.7,0-1.2,0.5-1.2,1.2v3.6c0,3.5,2.8,6.4,6.4,6.4h23.3c3.5,0,6.4-2.8,6.4-6.4v-3.6
	c0-0.7-0.5-1.2-1.2-1.2h-5L78.9,22.5c6,3.1,10.7,3.9,13.8,3.9c2.8,0,4.4-0.6,4.6-0.7c0.6-0.3,0.9-1,0.7-1.6c-0.3-0.6-1-0.9-1.6-0.7
	c-0.1,0-6.9,2.6-18.6-4.4c-9.7-5.8-18.5-7-23.6-7.1c1-1.1,1.7-2.4,1.7-4C55.9,4.7,53.2,2,50,2c-3.2,0-5.9,2.6-5.9,5.9
	c0,1.6,0.6,3,1.7,4c-5.1,0.1-13.9,1.4-23.6,7.1c-11.6,7-18.4,4.5-18.5,4.4c-0.6-0.3-1.3,0-1.6,0.7C1.8,24.7,2.1,25.4,2.8,25.7z
	 M37.9,68c0,2.2-1.8,3.9-3.9,3.9H10.7c-2.2,0-3.9-1.8-3.9-3.9v-2.4H38L37.9,68L37.9,68z M11.6,63.1l10-37.5l10,37.5H11.6z
	 M67.4,95.5H32.6v-4.7h34.7L67.4,95.5L67.4,95.5z M64.4,87.4v1H35.6v-1c0-1.9,1.5-3.3,3.3-3.3h22.1C62.9,84.1,64.4,85.5,64.4,87.4z
	 M55.3,81.7H44.7l3.9-64.6c0.1-1.4,0.8-2.1,1.4-2.1c0.6,0,1.3,0.7,1.4,2.1L55.3,81.7z M93.3,68c0,2.2-1.8,3.9-3.9,3.9H66.1
	c-2.2,0-3.9-1.8-3.9-3.9v-2.4h31.2L93.3,68L93.3,68z M67,63.1l10-38.2l10,38.2H67z M50,4.5c1.9,0,3.4,1.6,3.4,3.4s-1.6,3.4-3.4,3.4
	c-1.9,0-3.4-1.6-3.4-3.4S48.1,4.5,50,4.5z"/>
</symbol><symbol id="long-arrow" viewBox="0 0 100 100"><path d="M87 0l26 26h-113v8h113l-26 26h11l30-30-30-30h-11z" transform="translate(0 33)"/></symbol><symbol id="menu-thin" viewBox="0 0 100 100">
<path d="M99,22v6H1v-6H99z M99,47v6H1v-6H99z M1,74.5v6h98v-6H1z"/>
</symbol><symbol id="move-icon" viewBox="0 0 100 100">
<path d="M52.5,83.7l15.4-15.4l3.5,3.5L50,93.1L28.7,71.8l3.5-3.5l15.4,15.4V55.9h4.9V83.7z M1,41.2v-4.9h98v4.9H1z M1,11.8V6.9h98
	v4.9H1z"/>
</symbol><symbol id="move-right-icon" viewBox="0 0 100 100">
<path d="M83.7,47.5L68.3,32.1l3.5-3.5L93.1,50L71.8,71.3l-3.5-3.5l15.4-15.4H55.9v-4.9H83.7z M41.2,99h-4.9V1h4.9V99z M11.8,99H6.9
	V1h4.9V99z"/>
</symbol><symbol id="next" viewBox="0 0 100 100">
<path d="M65.9,50L23.3,7.4L28.7,2l48,48l-48,48l-5.4-5.4L65.9,50z"/>
</symbol><symbol id="pause" viewBox="0 0 100 100">
<path d="M99,1v98H1V1H99z M6.4,6.4v87.1h87.1V6.4H6.4z M39.4,71h-5.4V30h5.4V71z M66.1,71h-5.4V30h5.4V71z"/>
</symbol><symbol id="play" viewBox="0 0 100 100">
<path d="M50,99C22.9,99,1,77.1,1,50S22.9,1,50,1s49,21.9,49,49S77.1,99,50,99z M50,93.6c24.1,0,43.6-19.5,43.6-43.6S74.1,6.4,50,6.4
	S6.4,25.9,6.4,50S25.9,93.6,50,93.6z M36.4,75.8V24.2L75.1,50L36.4,75.8z M41.8,34.4v31.2L65.3,50L41.8,34.4z"/>
</symbol><symbol id="prev" viewBox="0 0 100 100">
<path d="M76.7,92.6L71.3,98l-48-48l48-48l5.4,5.4L34.1,50L76.7,92.6z"/>
</symbol><symbol id="probate--alt" viewBox="0 0 100 100">
<g transform="translate(0,-952.36218)">
	<path d="M21.1,958c-0.3,0.1-0.5,0.4-0.5,0.7v13.5c-0.1,0.2-0.1,0.4,0,0.6v33.5H1.7c-0.4,0-0.7,0.3-0.7,0.7v29.2c0,0,0,0,0,0.1v0.1
		c0,5.8,4.7,10.5,10.5,10.5c0.5,0,0.9,0,1.4-0.1c0.1,0.1,0.2,0.1,0.4,0.1h75.4c5.8,0,10.5-4.6,10.5-10.4v-77.7
		c0-0.4-0.3-0.7-0.7-0.7H21.2C21.2,958,21.1,958,21.1,958L21.1,958z M21.9,959.3h75.7v77c0,5-4.1,9.1-9.1,9.1H16.6
		c0.8-0.5,1.5-1,2.2-1.7c0,0,0,0,0,0c0.6-0.6,1.2-1.3,1.6-2c0,0,0,0,0-0.1c0.2-0.4,0.4-0.7,0.6-1.1c0,0,0,0,0-0.1
		c0.3-0.8,0.6-1.7,0.7-2.6c0-0.1,0-0.3,0-0.4c0-0.4,0.1-0.7,0.1-1.1v-6.3v-22.8c0,0,0,0,0-0.1c0-0.1,0-0.2,0-0.3c0,0,0,0,0-0.1
		v-33.9c0.1-0.2,0.1-0.5,0-0.7L21.9,959.3L21.9,959.3z M34.9,971.8c-0.4,0.1-0.6,0.4-0.5,0.8c0.1,0.3,0.3,0.5,0.7,0.5h37.4
		c0.4,0.1,0.7-0.2,0.8-0.6c0.1-0.4-0.2-0.7-0.6-0.8c-0.1,0-0.1,0-0.2,0H35C35,971.8,34.9,971.8,34.9,971.8z M34.8,985.6
		c-0.4,0.1-0.6,0.4-0.6,0.8s0.4,0.6,0.8,0.6c0,0,0,0,0,0h49.5c0.4,0.1,0.7-0.2,0.8-0.6c0.1-0.4-0.2-0.7-0.6-0.8c-0.1,0-0.1,0-0.2,0
		H35C35,985.6,34.9,985.6,34.8,985.6z M34.9,1001.7c-0.4,0.1-0.6,0.4-0.5,0.8c0.1,0.3,0.3,0.5,0.7,0.5h18.4c0.4,0.1,0.7-0.2,0.8-0.6
		c0.1-0.4-0.2-0.7-0.6-0.8c-0.1,0-0.1,0-0.2,0H35C35,1001.7,34.9,1001.7,34.9,1001.7z M66,1001.7c-0.4,0.1-0.6,0.4-0.5,0.8
		c0.1,0.3,0.3,0.5,0.7,0.5h18.4c0.4,0.1,0.7-0.2,0.8-0.6c0.1-0.4-0.2-0.7-0.6-0.8c-0.1,0-0.1,0-0.2,0H66.1
		C66,1001.7,66,1001.7,66,1001.7z M2.4,1007.7h18.2v22.3v6.3c0,0.1,0,0.2,0,0.2c0,0.2,0,0.4,0,0.6c0,0,0,0.1,0,0.1
		c0,0.2-0.1,0.5-0.1,0.7c0,0.1,0,0.1,0,0.2c0,0.2-0.1,0.4-0.1,0.6c0,0.1,0,0.2-0.1,0.3c-0.1,0.2-0.1,0.3-0.2,0.5
		c0,0.1-0.1,0.2-0.1,0.3c-0.1,0.1-0.1,0.3-0.2,0.4c-0.1,0.1-0.1,0.3-0.2,0.4c0,0.1-0.1,0.2-0.1,0.3c-0.1,0.2-0.2,0.3-0.3,0.5
		c-0.1,0.1-0.1,0.2-0.2,0.2c-0.1,0.1-0.2,0.3-0.3,0.4c0,0,0,0.1-0.1,0.1c-0.1,0.1-0.1,0.1-0.2,0.2c-0.3,0.3-0.6,0.6-0.9,0.9
		c0,0,0,0,0,0c-1.2,1-2.6,1.6-4.2,1.9c0,0-0.1,0-0.1,0c-0.5,0.1-0.9,0.1-1.4,0.1c-5,0-9.1-4-9.1-9c0,0,0-0.1,0-0.1L2.4,1007.7
		L2.4,1007.7z M34.9,1016.6c-0.4,0.1-0.6,0.4-0.5,0.8c0.1,0.3,0.3,0.5,0.7,0.5h49.5c0.4,0.1,0.7-0.2,0.8-0.6
		c0.1-0.4-0.2-0.7-0.6-0.8c-0.1,0-0.1,0-0.2,0H35C35,1016.6,34.9,1016.6,34.9,1016.6z M34.9,1031.6c-0.4,0.1-0.6,0.4-0.5,0.8
		c0.1,0.3,0.3,0.5,0.7,0.5h49.5c0.4,0.1,0.7-0.2,0.8-0.6c0.1-0.4-0.2-0.7-0.6-0.8c-0.1,0-0.1,0-0.2,0H35
		C35,1031.6,34.9,1031.6,34.9,1031.6z"/>
</g>
</symbol><symbol id="probate" viewBox="0 0 100 100"><path d="M83.2319336,10l-0.7057495,0.000061C82.526062,10.000061,82.526001,10,82.5258789,10  c-0.0003662,0-0.0007935,0.000061-0.0011597,0.000061l-58.0881958,0.0048218  c-3.7382812,0.3701172-6.6665039,3.7592773-6.6665039,7.7158203v54.8237305H11c-0.5522461,0-1,0.4477539-1,1v8.6176758  C10,86.4838867,13.5068359,90,17.8173828,90H70.375c0.0019531,0,0.0043945,0,0.0063477,0  c4.2675781-0.027832,7.7397461-3.5415039,7.7397461-7.8325195V28.3842773H89c0.5522461,0,1-0.4477539,1-1V16.7851562  C90,13.0439453,86.9638672,10,83.2319336,10z M17.8173828,88C14.6098633,88,12,85.3813477,12,82.1621094v-7.6176758h50.5576172  v7.6176758c0,2.3164062,1.0078125,4.4018555,2.6064453,5.8378906H17.8173828z M76.1210938,82.1674805  c0,3.1942749-2.5789185,5.8101196-5.7494507,5.8323364c-3.2058716-0.0018311-5.8140259-2.6196289-5.8140259-5.8377075v-8.6176758  c0-0.5522461-0.4477539-1-1-1H19.7700195V17.7207031c0-2.9404297,2.1362305-5.4555664,4.7651367-5.7207031h53.3529663  c-1.0919189,1.1491089-1.7670288,2.697876-1.7670288,4.4042969V82.1674805z M88,26.3842773h-9.8789062v-9.9799805  C78.1210938,13.9755859,80.097168,12,82.5258789,12h0.7060547C85.8608398,12,88,14.1464844,88,16.7851562V26.3842773z"/><path d="M52.324707,22.6899414H28.0454102c-0.5522461,0-1,0.4477539-1,1s0.4477539,1,1,1H52.324707c0.5522461,0,1-0.4477539,1-1  S52.8769531,22.6899414,52.324707,22.6899414z"/><path d="M36.0341797,37.1000977h-7.9887695c-0.5522461,0-1,0.4477539-1,1s0.4477539,1,1,1h7.9887695c0.5522461,0,1-0.4477539,1-1  S36.5864258,37.1000977,36.0341797,37.1000977z"/><path d="M52.324707,37.1000977h-7.9882812c-0.5522461,0-1,0.4477539-1,1s0.4477539,1,1,1h7.9882812c0.5522461,0,1-0.4477539,1-1  S52.8769531,37.1000977,52.324707,37.1000977z"/><path d="M68.6157227,37.1000977h-7.9887695c-0.5522461,0-1,0.4477539-1,1s0.4477539,1,1,1h7.9887695c0.5522461,0,1-0.4477539,1-1  S69.1679688,37.1000977,68.6157227,37.1000977z"/><path d="M36.0341797,45.6005859h-7.9887695c-0.5522461,0-1,0.4477539-1,1s0.4477539,1,1,1h7.9887695c0.5522461,0,1-0.4477539,1-1  S36.5864258,45.6005859,36.0341797,45.6005859z"/><path d="M52.324707,45.6005859h-7.9882812c-0.5522461,0-1,0.4477539-1,1s0.4477539,1,1,1h7.9882812c0.5522461,0,1-0.4477539,1-1  S52.8769531,45.6005859,52.324707,45.6005859z"/><path d="M68.6157227,45.6005859h-7.9887695c-0.5522461,0-1,0.4477539-1,1s0.4477539,1,1,1h7.9887695c0.5522461,0,1-0.4477539,1-1  S69.1679688,45.6005859,68.6157227,45.6005859z"/><path d="M36.0341797,54.1010742h-7.9887695c-0.5522461,0-1,0.4477539-1,1s0.4477539,1,1,1h7.9887695c0.5522461,0,1-0.4477539,1-1  S36.5864258,54.1010742,36.0341797,54.1010742z"/><path d="M52.324707,54.1010742h-7.9882812c-0.5522461,0-1,0.4477539-1,1s0.4477539,1,1,1h7.9882812c0.5522461,0,1-0.4477539,1-1  S52.8769531,54.1010742,52.324707,54.1010742z"/><path d="M68.6157227,54.1010742h-7.9887695c-0.5522461,0-1,0.4477539-1,1s0.4477539,1,1,1h7.9887695c0.5522461,0,1-0.4477539,1-1  S69.1679688,54.1010742,68.6157227,54.1010742z"/><path d="M36.0341797,62.6015625h-7.9887695c-0.5522461,0-1,0.4477539-1,1s0.4477539,1,1,1h7.9887695c0.5522461,0,1-0.4477539,1-1  S36.5864258,62.6015625,36.0341797,62.6015625z"/><path d="M52.324707,62.6015625h-7.9882812c-0.5522461,0-1,0.4477539-1,1s0.4477539,1,1,1h7.9882812c0.5522461,0,1-0.4477539,1-1  S52.8769531,62.6015625,52.324707,62.6015625z"/><path d="M68.6157227,62.6015625h-7.9887695c-0.5522461,0-1,0.4477539-1,1s0.4477539,1,1,1h7.9887695c0.5522461,0,1-0.4477539,1-1  S69.1679688,62.6015625,68.6157227,62.6015625z"/></symbol><symbol id="quotes" viewBox="0 0 100 100">
<g>
	<path d="M61.5,44.6V8.3h33.5V37c0,15.5-1.9,26.8-5.6,33.7C84.7,80,77,87,66.5,91.7
		l-7.6-12.2C65.3,76.8,70,72.9,73,67.6s4.7-12.9,5-23H61.5z M7.8,44.6V8.3h33.5V37c0,15.5-1.9,26.8-5.6,33.7
		c-4.8,9.3-12.5,16.3-23,21L4.9,79.5C11.4,76.9,16,72.9,19,67.6s4.7-12.9,5-23H7.8z"/>
</g>
</symbol><symbol id="return" viewBox="0 0 100 100">
<style type="text/css">
	.st0{fill:#FFFFFF;}
</style>
<path class="st0" d="M27,24l14.4,14.4l-3.8,3.8L16.8,21.4L37.1,1l3.8,3.8L27,18.7h23c22.2,0,40.2,18,40.2,40.2S72.2,99,50,99
	S9.8,81,9.8,58.8v-2.7h5.4v2.7c0,19.2,15.6,34.8,34.8,34.8s34.8-15.6,34.8-34.8S69.2,24,50,24H27z"/>
</symbol><symbol id="scroll-down" viewBox="0 0 100 100">
<path d="M95,49c0-0.3,0-0.7,0-1C95,22,74,1,48,1
	S1,22,1,48c0,0.3,0,0.7,0,1H95z"/>
</symbol><symbol id="text-icon-thin" viewBox="0 0 100 100">
<path d="M99,1v98H1V1H99z M6.4,6.4v87.1h87.1V6.4H6.4z M77.2,63.6v5.4H22.8v-5.4H77.2z M77.2,30.9v5.4H22.8v-5.4H77.2z"/>
</symbol><symbol id="twitter" viewBox="0 0 100 100">
<g id="XMLID_826_">
	<path id="XMLID_827_" d="M96.8,19.1c-1.5,0.7-3.1,1.3-4.7,1.7c1.9-2.2,3.4-4.7,4.3-7.5c0.2-0.6,0-1.3-0.5-1.7
		c-0.5-0.4-1.2-0.5-1.8-0.1c-3.4,2-7.1,3.5-11,4.4c-3.9-3.8-9.2-6-14.7-6c-11.6,0-21,9.4-21,21c0,0.9,0.1,1.8,0.2,2.7
		C33,32.4,19.6,25.3,10.4,14c-0.3-0.4-0.8-0.6-1.3-0.6c-0.5,0-1,0.3-1.2,0.8C6,17.4,5,21.1,5,24.8c0,5.1,1.8,9.9,5,13.6
		c-1-0.3-1.9-0.8-2.8-1.3c-0.5-0.3-1.1-0.3-1.6,0c-0.5,0.3-0.8,0.8-0.8,1.3c0,0.1,0,0.2,0,0.3c0,7.6,4.1,14.4,10.3,18.1
		c-0.5-0.1-1.1-0.1-1.6-0.2c-0.5-0.1-1.1,0.1-1.5,0.5c-0.4,0.4-0.5,1-0.3,1.5c2.3,7.2,8.2,12.5,15.4,14.1
		c-5.9,3.7-12.8,5.7-19.9,5.7c-1.5,0-3-0.1-4.5-0.3c-0.7-0.1-1.4,0.3-1.7,1c-0.2,0.7,0,1.5,0.6,1.9c9.2,5.9,19.8,9,30.7,9
		c21.4,0,34.8-10.1,42.3-18.6C84,61,89.3,47,89.3,33.2c0-0.6,0-1.2,0-1.7c3.7-2.8,6.8-6.1,9.4-10c0.4-0.6,0.3-1.4-0.1-1.9
		C98.2,19,97.4,18.9,96.8,19.1z"/>
</g>
</symbol><symbol id="vdeo" viewBox="0 0 100 100"><path fill-rule="evenodd" d="M234,746 L234,758 L221,758 L221,746 L234,746 Z M233,747 L222,747 L222,757 L233,757 L233,747 Z M239,755 L238,755 L238,749 L239,749 L239,755 Z M230,742 L230,741 L240,741 L240,742 L230,742 Z" transform="translate(-221 -741)"/></symbol></svg>